<svg width="199" height="48" viewBox="0 0 199 48" fill="none" xmlns="http://www.w3.org/2000/svg">
<g filter="url(#filter0_d)">
<rect x="4" y="10" width="35" height="29" fill="#385B7B"/>
<path d="M10.9375 32H14.8864V28.25L16.1932 26.5455L19.4602 32H24.1761L19.1477 23.9318L24.0625 17.4545H19.4602L15.0852 23.3352H14.8864V17.4545H10.9375V32ZM19.6366 20.6364H24.0116V32H27.9037V20.6364H32.2787V17.4545H19.6366V20.6364Z" fill="white"/>
<path d="M40.642 39H45.7841V31.6705L47.6591 29.6676L54.3352 39H60.4858L51.5369 26.5994L59.9886 17.1818H53.9801L46.1392 25.946H45.7841V9.90909H40.642V39ZM68.1761 39.4261C73.2614 39.4261 76.7557 36.9403 77.6648 33.1477L72.8636 32.608C72.1676 34.4545 70.4631 35.4205 68.2472 35.4205C64.9233 35.4205 62.7216 33.233 62.679 29.4972H77.8778V27.9205C77.8778 20.2642 73.2756 16.8977 67.9062 16.8977C61.6562 16.8977 57.5795 21.4858 57.5795 28.2188C57.5795 35.0653 61.5994 39.4261 68.1761 39.4261ZM62.6932 26.0312C62.8494 23.2472 64.9091 20.9034 67.9773 20.9034C70.9318 20.9034 72.9205 23.0625 72.9489 26.0312H62.6932ZM97.0916 17.1818H91.6229L86.5945 33.3892H86.3672L81.353 17.1818H75.87L83.6399 39H89.3217L97.0916 17.1818ZM96.6499 39H101.792V17.1818H96.6499V39ZM99.2351 14.0852C100.869 14.0852 102.204 12.8352 102.204 11.3011C102.204 9.75284 100.869 8.50284 99.2351 8.50284C97.5874 8.50284 96.2521 9.75284 96.2521 11.3011C96.2521 12.8352 97.5874 14.0852 99.2351 14.0852ZM108.222 26.2159C108.222 23.0625 110.125 21.2443 112.838 21.2443C115.494 21.2443 117.085 22.9915 117.085 25.9034V39H122.227V25.108C122.241 19.8807 119.259 16.8977 114.756 16.8977C111.489 16.8977 109.244 18.4602 108.25 20.8892H107.994V17.1818H103.08V39H108.222V26.2159ZM134.349 17.1818H130.045V11.9545H124.903V17.1818H121.807V21.1591H124.903V33.2898C124.875 37.3949 127.858 39.4119 131.722 39.2983C133.185 39.2557 134.193 38.9716 134.747 38.7869L133.881 34.767C133.597 34.8381 133.014 34.9659 132.375 34.9659C131.082 34.9659 130.045 34.5114 130.045 32.4375V21.1591H134.349V17.1818ZM134.65 39H139.792V26.1733C139.792 23.4034 141.88 21.4432 144.707 21.4432C145.573 21.4432 146.653 21.5994 147.093 21.7415V17.0114C146.624 16.9261 145.815 16.8693 145.246 16.8693C142.746 16.8693 140.658 18.2898 139.863 20.8182H139.636V17.1818H134.65V39ZM152.358 39.4403C155.781 39.4403 157.827 37.8352 158.764 36.0028H158.935V39H163.878V24.3977C163.878 18.6307 159.176 16.8977 155.014 16.8977C150.426 16.8977 146.903 18.9432 145.767 22.9205L150.568 23.6023C151.08 22.1108 152.528 20.8324 155.043 20.8324C157.429 20.8324 158.736 22.054 158.736 24.1989V24.2841C158.736 25.7614 157.188 25.8324 153.338 26.2443C149.105 26.6989 145.057 27.9631 145.057 32.8778C145.057 37.1676 148.196 39.4403 152.358 39.4403ZM153.693 35.6619C151.548 35.6619 150.014 34.6818 150.014 32.7926C150.014 30.8182 151.733 29.9943 154.034 29.6676C155.384 29.483 158.082 29.142 158.75 28.6023V31.1733C158.75 33.6023 156.79 35.6619 153.693 35.6619ZM170.19 26.2159C170.19 23.0625 172.094 21.2443 174.807 21.2443C177.463 21.2443 179.054 22.9915 179.054 25.9034V39H184.196V25.108C184.21 19.8807 181.227 16.8977 176.724 16.8977C173.457 16.8977 171.213 18.4602 170.219 20.8892H169.963V17.1818H165.048V39H170.19V26.2159Z" fill="#385B7B"/>
</g>
<defs>
<filter id="filter0_d" x="0" y="0" width="203" height="54" filterUnits="userSpaceOnUse" color-interpolation-filters="sRGB">
<feFlood flood-opacity="0" result="BackgroundImageFix"/>
<feColorMatrix in="SourceAlpha" type="matrix" values="0 0 0 0 0 0 0 0 0 0 0 0 0 0 0 0 0 0 127 0"/>
<feOffset dy="4"/>
<feGaussianBlur stdDeviation="2"/>
<feColorMatrix type="matrix" values="0 0 0 0 0 0 0 0 0 0 0 0 0 0 0 0 0 0 0.12 0"/>
<feBlend mode="normal" in2="BackgroundImageFix" result="effect1_dropShadow"/>
<feBlend mode="normal" in="SourceGraphic" in2="effect1_dropShadow" result="shape"/>
</filter>
</defs>
</svg>
